<svg xmlns="http://www.w3.org/2000/svg" viewBox="0 0 512 512" role="img" aria-label="Blog app icon">
  <defs>
    <linearGradient id="sky" x1="86" y1="42" x2="426" y2="470" gradientUnits="userSpaceOnUse">
      <stop offset="0" stop-color="#e9f8ff"/>
      <stop offset="1" stop-color="#bdeaff"/>
    </linearGradient>
    <filter id="soft-shadow" x="-20%" y="-20%" width="140%" height="140%">
      <feDropShadow dx="0" dy="18" stdDeviation="24" flood-color="#55b8e8" flood-opacity=".18"/>
    </filter>
  </defs>
  <rect width="512" height="512" rx="112" fill="url(#sky)"/>
  <rect x="74" y="72" width="364" height="368" rx="72" fill="#ffffff" stroke="#8bd3f7" stroke-width="14" filter="url(#soft-shadow)"/>
  <path d="M178 154h92c52 0 86 28 86 72 0 26-12 47-34 59 29 11 46 34 46 67 0 50-38 80-94 80h-96V154Zm88 106c28 0 44-13 44-36 0-22-16-35-44-35h-40v71h40Zm6 137c31 0 48-15 48-41 0-27-18-42-50-42h-44v83h46Z" fill="#0b6fa4"/>
  <path d="M164 120h184" stroke="#5ac7f3" stroke-width="18" stroke-linecap="round"/>
  <path d="M164 456h184" stroke="#5ac7f3" stroke-width="18" stroke-linecap="round"/>
</svg>
